<?xml version="1.0" standalone="no"?>
<!DOCTYPE svg PUBLIC "-//W3C//DTD SVG 20010904//EN"
 "http://www.w3.org/TR/2001/REC-SVG-20010904/DTD/svg10.dtd">
<svg version="1.0" xmlns="http://www.w3.org/2000/svg"
 width="128.000000pt" height="128.000000pt" viewBox="0 0 128.000000 128.000000"
 preserveAspectRatio="xMidYMid meet">
<metadata>
Created by potrace 1.11, written by Peter Selinger 2001-2013
</metadata>
<g transform="translate(0.000000,128.000000) scale(0.100000,-0.100000)"
fill="#000000" stroke="none">
<path d="M690 1199 c-305 -89 -521 -150 -548 -155 -13 -3 -47 -12 -75 -22
l-51 -17 -3 -125 c-1 -69 -4 -235 -6 -368 l-5 -244 33 -14 c18 -7 77 -29 131
-48 158 -55 407 -143 435 -154 23 -9 53 8 345 200 175 116 320 211 321 212 2
2 5 24 7 49 4 51 3 52 -68 63 -44 6 -59 9 -101 19 -68 16 -65 11 -64 83 0 37
0 116 0 175 l-1 108 -61 27 -61 26 7 45 c4 26 8 50 8 55 1 5 -11 13 -28 19
-36 12 -41 19 -49 68 -3 22 -12 39 -19 38 -6 0 -73 -18 -147 -40z"/>
</g>
</svg>
